<svg width="24" height="24" viewBox="0 0 24 24" fill="none" xmlns="http://www.w3.org/2000/svg">
<path d="M19.5525 2.99697C19.3117 3.01449 19.0754 3.07097 18.8527 3.16422H18.8497C18.636 3.24897 17.6197 3.67647 16.0747 4.32447L10.5382 6.65622C6.56547 8.32872 2.66022 9.97572 2.66022 9.97572L2.70672 9.95772C2.70672 9.95772 2.43747 10.0462 2.15622 10.239C1.98246 10.3495 1.83295 10.4942 1.71672 10.6642C1.57872 10.8667 1.46772 11.1765 1.50897 11.4967C1.57647 12.0382 1.92747 12.363 2.17947 12.5422C2.43447 12.7237 2.67747 12.8085 2.67747 12.8085H2.68347L6.34572 14.0422C6.50997 14.5695 7.46172 17.6985 7.69047 18.4192C7.82547 18.8497 7.95672 19.119 8.12097 19.3245C8.20047 19.4295 8.29347 19.5172 8.40522 19.5877C8.46331 19.6215 8.52526 19.6482 8.58972 19.6672L8.55222 19.6582C8.56347 19.6612 8.57247 19.6702 8.58072 19.6732C8.61072 19.6815 8.63097 19.6845 8.66922 19.6905C9.24897 19.866 9.71472 19.506 9.71472 19.506L9.74097 19.485L11.9032 17.5162L15.5272 20.2965L15.6097 20.3317C16.365 20.6632 17.13 20.4787 17.5342 20.1532C17.9415 19.8255 18.0997 19.4062 18.0997 19.4062L18.126 19.3387L20.9265 4.99197C21.006 4.63797 21.0262 4.30647 20.9385 3.98472C20.848 3.65909 20.639 3.37903 20.3527 3.19947C20.1123 3.05331 19.8335 2.98276 19.5525 2.99697ZM19.4767 4.53447C19.4737 4.58172 19.4827 4.57647 19.4617 4.66722V4.67547L16.6875 18.873C16.6755 18.8932 16.6552 18.9375 16.5997 18.9817C16.5412 19.0282 16.4947 19.0575 16.251 18.9607L11.8185 15.5625L9.14097 18.003L9.70347 14.4105L16.9455 7.66047C17.244 7.38297 17.1442 7.32447 17.1442 7.32447C17.1652 6.98397 16.6935 7.22472 16.6935 7.22472L7.56147 12.882L7.55847 12.867L3.18147 11.3932V11.3902L3.17022 11.388C3.17789 11.3854 3.1854 11.3824 3.19272 11.379L3.21672 11.367L3.23997 11.3587C3.23997 11.3587 7.14822 9.71172 11.121 8.03922C13.11 7.20147 15.114 6.35772 16.6552 5.70672C17.5693 5.32197 18.4843 4.93947 19.4002 4.55922C19.4617 4.53522 19.4325 4.53447 19.4767 4.53447Z" fill="white"/>
</svg>
